# xmcd CD database file
#
# Track frame offsets:
#	150
#	6061
#	17080
#	28162
#	36350
#	44856
#	53477
#	63000
#	73697
#	84436
#	94455
#	105067
#	115821
#	125421
#	134883
#	144512
#	154635
#	164946
#	175417
#	182431
#	193977
#	205560
#	212065
#	224064
#	236133
#	245374
#	255533
#	265804
#	274451
#	285262
#
# Disc length: 3944 seconds
#
# Revision: 0
# Processed by: cddbd v1.4PL0 Copyright (c) Steve Scherf et al.
# Submitted via: CDex 1.50
#
DISCID=c50f661e
DTITLE=Thorsten Plath - Jazz Guitar Light(S)
DYEAR=1900
DGENRE=Jazz
TTITLE0=The Calm Sea - Solo-Version
TTITLE1=The Calm Sea - Band-Version
TTITLE2=The Calm Sea - Playback
TTITLE3=Colors Of The Rainbow - Solo-Version
TTITLE4=Colors Of The Rainbow - Band-Version
TTITLE5=Colors Of The Rainbow - Playback
TTITLE6=Back Home - Solo-Version
TTITLE7=Back Home - Band Version
TTITLE8=Back Home - Playback
TTITLE9=The Greek Walts - Solo-Version
TTITLE10=The Greek Walts - Band-Version
TTITLE11=The Greeks Walts - Playback
TTITLE12=Variation Of A Blue Coloured Sky - Solo-Version
TTITLE13=Variation Of A Blue Coloured Sky - Band-Version
TTITLE14=Variation Of A Blue Coloured Sky - Playback
TTITLE15=Seaside Blues - Solo-Version
TTITLE16=Seaside Blues - Band-Version
TTITLE17=Seaside Blues - Playback
TTITLE18=In The Morning We'll Be Back - Solo-Version
TTITLE19=In The Morning We'll Be Back - Band-Version
TTITLE20=In The Morning We'll Be Back - Playback
TTITLE21=Santarosa - Solo-Version
TTITLE22=Santarosa - Band-Version
TTITLE23=Santarosa - Playback
TTITLE24=Where The River Flows - Solo-Version
TTITLE25=Where The River Flows - Band-Version
TTITLE26=Where The River Flows - Playback
TTITLE27=Autumn Breath - Solo-Version
TTITLE28=Autumn Breath - Band-Version
TTITLE29=Autumn Breaths - Playback
EXTD=
EXTT0=
EXTT1=
EXTT2=
EXTT3=
EXTT4=
EXTT5=
EXTT6=
EXTT7=
EXTT8=
EXTT9=
EXTT10=
EXTT11=
EXTT12=
EXTT13=
EXTT14=
EXTT15=
EXTT16=
EXTT17=
EXTT18=
EXTT19=
EXTT20=
EXTT21=
EXTT22=
EXTT23=
EXTT24=
EXTT25=
EXTT26=
EXTT27=
EXTT28=
EXTT29=
PLAYORDER=
